<svg aria-hidden="true" style="position:absolute;width:0;height:0" xmlns="http://www.w3.org/2000/svg" overflow="hidden">
  <defs>
    <symbol id="icon-antenna" viewBox="0 0 32 32">
      <path fill="var(--color1, #212121)" d="M30.773 22.098l-8.443-8.505.937-4.615c.242.094.499.144.758.146h.006c1.192.014 2.17-.941 2.184-2.133s-.941-2.17-2.133-2.184c-1.192-.014-2.17.941-2.184 2.133-.003.255.039.509.125.749l-4.96.605L8.972.161a.53404.53404 0 00-.377-.16c-.14.001-.274.056-.373.155L6.709 1.66c-.208.208-.208.546 0 .754l.814.826C4.37 9.038 5.394 16.218 10.042 20.903c.043.041.092.074.146.098-.034.18-.051.364-.052.547v6.187h-6.4c-1.472.002-2.665 1.195-2.667 2.667v1.067c0 .295.239.533.533.533h24.533c.295 0 .533-.239.533-.533v-1.067c-.002-1.472-1.195-2.665-2.667-2.667h-6.4v-2.742c1.003.21 2.024.317 3.049.32 2.458-.003 4.877-.615 7.04-1.783l.818.823c.099.101.235.159.377.16.14-.001.274-.056.373-.155l1.513-1.504c.208-.208.208-.546 0-.754zM23.28 6.233c.418-.415 1.093-.414 1.508.004s.414 1.093-.004 1.508c-.2.199-.47.31-.752.31h-.003c-.589-.003-1.064-.483-1.061-1.072.002-.282.115-.552.314-.751h-.002zm-1.256 3.505l-.598 2.946-1.175-1.182 1.774-1.763zm-.605-.902l-1.92 1.909-1.485-1.493 3.405-.415zM24.004 28.8c.884 0 1.6.716 1.6 1.6v.533H2.137V30.4c0-.884.716-1.6 1.6-1.6h20.267zm-7.467-2.133v1.067h-5.333v-1.067h5.333zM11.204 25.6v-4.053c0-1.294 1.196-2.347 2.667-2.347s2.667 1.053 2.667 2.347V25.6h-5.333zm6.4-1.696v-2.357c0-1.882-1.675-3.413-3.733-3.413-1.331-.02-2.576.657-3.281 1.786C6.532 15.646 5.619 9.275 8.311 4.033l18.602 18.708c-2.872 1.461-6.165 1.873-9.309 1.163zm11.289-.684L7.836 2.039l.755-.752 7.935 7.98c.004 0 .006.007.01.01l13.115 13.191-.757.752z"/>
      <path fill="var(--color2, #2196f3)" d="M13.876 20.267h-.005c-.884-.001-1.601.714-1.602 1.598s.714 1.601 1.598 1.602h.005c.884.001 1.601-.714 1.602-1.598s-.714-1.601-1.598-1.602zm.373 1.978c-.1.1-.236.156-.378.155-.295-.002-.532-.241-.531-.536.001-.141.057-.276.157-.375s.233-.154.373-.155c.295.002.532.241.53.536-.001.141-.057.276-.157.375h.005z"/>
    </symbol>
    <symbol id="icon-astronaut" viewBox="0 0 32 32">
      <path fill="var(--color2, #2196f3)" d="M31.974 4.524c-.063-.193-.229-.333-.43-.363l-1.91-.278-.855-1.731c-.179-.365-.777-.365-.956 0l-.855 1.731-1.91.278c-.201.029-.367.17-.431.363-.062.193-.011.405.135.547l1.383 1.348-.326 1.903c-.034.2.048.402.212.522.166.121.382.135.562.04l1.709-.899 1.709.899c.078.041.164.061.249.061.11 0 .221-.034.314-.102.164-.119.246-.322.212-.522l-.326-1.903 1.383-1.348c.145-.142.197-.354.135-.547zm-2.463 1.327c-.125.122-.183.299-.153.472l.191 1.114-1-.526c-.078-.041-.163-.061-.249-.061s-.17.02-.249.061l-1.001.526.191-1.114c.03-.173-.028-.349-.153-.472l-.81-.789 1.119-.163c.174-.025.324-.134.402-.292l.5-1.013.5 1.013c.078.157.228.267.402.292l1.119.163-.809.789zM26.133 20.522h-1.067v1.067h1.067v-1.067zM26.133 22.656h-1.067v1.067h1.067v-1.067zM27.2 21.589h-1.067v1.067H27.2v-1.067zM25.067 21.589H24v1.067h1.067v-1.067zM22.4 26.389h-1.067v1.067H22.4v-1.067zM22.4 28.522h-1.067v1.067H22.4v-1.067zM23.467 27.456H22.4v1.067h1.067v-1.067zM21.333 27.456h-1.067v1.067h1.067v-1.067zM16 24.256h-1.067v1.067H16v-1.067zM16 26.389h-1.067v1.067H16v-1.067zM17.067 25.322H16v1.067h1.067v-1.067zM14.933 25.322h-1.067v1.067h1.067v-1.067zM5.866 6.122H4.799v1.067h1.067V6.122zM5.866 8.255H4.799v1.067h1.067V8.255z"/>
      <path fill="var(--color2, #2196f3)" d="M6.933 7.189H5.866v1.067h1.067V7.189zM4.8 7.189H3.733v1.067H4.8V7.189z"/>
      <path fill="var(--color1, #212121)" d="M24.715 14.159c-.287-.388-.709-.637-1.188-.705-.481-.068-.956.058-1.34.352l-1.252.96-1.898 1.417-1.358-.541c2.421-1.086 4.114-3.508 4.114-6.32 0-3.823-3.123-6.933-6.961-6.933s-6.961 3.11-6.961 6.933c0 1.386.414 2.674 1.12 3.758l-2.764-.024h-.005c-.009 0-.015.004-.023.005-.053.002-.105.013-.155.031-.013.005-.026.008-.038.013-.006.003-.013.003-.019.006l-3.233 1.596c-.001 0-.001 0-.001.001l-1.893.911c-.021.009-.042.021-.063.035-.755.502-1.012 1.489-.598 2.295.22.429.595.745 1.056.889.178.055.359.083.539.083.29 0 .577-.071.839-.211l1.388-.738 2.264-1.169 1.357-.008L2.2 22.211c-.001.001-.001.001-.002.001L.859 23.545c-.316.315-.49.732-.49 1.178s.174.863.49 1.179c.325.323.752.485 1.179.485s.854-.162 1.18-.485l1.314-1.309 1.741-1.3.901.897-1.762 1.754c0 .001-.001.001-.002.001l-1.339 1.333c-.316.315-.49.732-.49 1.178s.174.863.49 1.179c.325.323.753.485 1.18.485s.855-.162 1.18-.485l3.482-3.467c.001-.001.001-.001.001-.002l1.01-1-.004-.004c.006-.006.015-.009.022-.015l5.166-5.658 3.471.494c.025.004.05.005.075.005.065 0 .127-.015.187-.038.018-.006.033-.015.05-.023.019-.01.039-.015.058-.027l3.213-2.133c.012-.008.018-.021.029-.029.013-.01.029-.014.041-.026l1.271-1.191c.662-.62.753-1.635.212-2.362zM2.13 17.77c-.173.093-.37.111-.558.052-.187-.058-.338-.186-.427-.358-.161-.314-.068-.696.214-.902l1.314-.632.449 1.312-.992.527zm3.498-1.828l-1.548.8-.439-1.283 2.027-1.001-.04 1.484zm15.099-6.62c0 .918-.219 1.785-.599 2.559l-4.181-1.899c-.044-.573-.341-1.075-.788-1.388l1.464-4.86c2.378.756 4.105 2.974 4.105 5.588zm-11.789 0c0-3.235 2.644-5.867 5.894-5.867.253 0 .5.021.745.052l-1.432 4.754c-.019-.001-.037-.006-.057-.006-1.033 0-1.873.837-1.873 1.867s.84 1.867 1.873 1.867c.694 0 1.294-.383 1.618-.945l3.862 1.755c-1.075 1.446-2.795 2.39-4.737 2.39-3.25 0-5.894-2.632-5.894-5.867zm5.956.8c0 .441-.362.8-.806.8s-.806-.359-.806-.8c0-.441.362-.8.806-.8s.806.359.806.8zM2.465 25.146c-.236.234-.619.234-.854.001-.114-.114-.176-.263-.176-.423s.062-.309.176-.421l.962-.958.851.848-.959.955zm3.214 3.734c-.236.234-.619.235-.855.001-.114-.114-.176-.263-.176-.423s.062-.309.176-.421l.963-.959.852.848-.96.955zm3.481-3.469c-.001 0-.001 0-.002.001l-1.765 1.76-.852-.848 1.763-1.755s.001-.001.002-.001c.04-.04.065-.088.09-.135.007-.014.02-.026.026-.04.017-.041.019-.085.026-.129.003-.025.014-.047.014-.073 0-.036-.013-.07-.02-.106-.006-.032-.006-.065-.019-.095-.02-.05-.055-.094-.091-.138-.01-.012-.014-.027-.025-.038h-.001c-.001 0-.001-.002-.001-.002l-1.607-1.6c-.017-.017-.039-.024-.058-.038-.028-.022-.055-.042-.087-.058-.03-.015-.061-.024-.093-.033-.034-.01-.067-.017-.103-.02-.033-.002-.063.001-.095.005-.036.004-.069.009-.104.02-.034.011-.063.027-.094.045-.02.011-.042.015-.061.029L4.23 23.486l-.901-.897 2.399-2.386 4.361 4.289-.928.919zm6.819-7.017c-.015-.002-.03.004-.045.003-.039-.002-.076.001-.115.007-.03.005-.059.011-.088.021-.034.012-.065.028-.097.047-.03.018-.057.037-.083.061-.013.011-.028.017-.04.029l-4.698 5.146-4.328-4.257 2.833-2.818c.209-.208.21-.546.002-.755-.105-.105-.243-.157-.381-.156v-.001l-2.219.013.028-1.607 3.104.027c1.265 1.294 3.029 2.101 4.981 2.101.437 0 .864-.045 1.279-.123.04.032.079.065.13.085l2.41.96.152.758.178.885-3.003-.427zm4.041.178l-.313-1.558 1.446-1.08.947 1.257-2.08 1.381zm3.754-2.831l-.838.785-.931-1.236.831-.637c.155-.119.351-.168.543-.143.193.027.364.128.48.284.217.292.18.699-.085.947z"/>
      <path fill="var(--color1, #212121)" d="M13.602 18.544l-2.143-2.133c-.207-.207-.545-.207-.753 0l-2.142 2.133c-.1.101-.157.236-.157.378s.056.278.157.378l2.142 2.133c.104.103.241.155.377.155s.273-.052.376-.155l2.143-2.133c.1-.1.157-.236.157-.378s-.057-.278-.157-.378zm-2.519 1.759l-1.387-1.381 1.387-1.381 1.387 1.381-1.387 1.381zM17.164 5.071l-.258 1.036c.071.018 1.738.452 1.738 2.149h1.067c0-2.017-1.666-2.965-2.547-3.185zM19.711 9.322h-1.067v1.067h1.067V9.322z"/>
    </symbol>
    <symbol id="icon-clientfifth" viewBox="0 0 32 32">
      <path d="M2.434 24.557c.125.155.191.349.188.548.006.13-.016.26-.067.379s-.127.227-.224.313c-.242.184-.542.273-.845.253H0v-3.474h1.455c.287-.019.572.062.806.231.094.079.168.179.217.292s.071.235.065.358c.009.192-.051.38-.169.531-.113.138-.269.234-.443.271.197.036.375.141.502.297zm-1.743-.524h.622c.141.01.282-.03.396-.115.047-.043.083-.095.106-.154s.032-.122.027-.185c.004-.063-.005-.126-.028-.185s-.058-.112-.104-.155c-.117-.087-.262-.129-.407-.117H.691v.911zm1.079 1.332c.05-.044.089-.098.115-.159s.037-.128.032-.194c.004-.067-.008-.134-.034-.196s-.066-.117-.117-.161c-.122-.091-.271-.135-.423-.126H.691v.955h.661c.149.009.296-.034.417-.12zM5.409 26.051l-.81-1.358h-.304v1.358h-.696v-3.474h1.318c.332-.023.661.082.918.295.184.189.295.437.313.701s-.058.525-.215.737c-.163.187-.385.312-.629.353l.862 1.388h-.757zM4.295 24.22h.57c.396 0 .593-.175.593-.526.004-.072-.007-.143-.032-.21s-.064-.128-.114-.18c-.125-.104-.286-.155-.448-.141h-.576l.007 1.057zM9.215 25.352H7.827l-.245.699h-.73l1.274-3.435h.789l1.269 3.435h-.73l-.24-.699zm-.186-.526l-.507-1.466-.507 1.466h1.014zM13.98 26.051h-.691l-1.55-2.362v2.362h-.69v-3.474h.69l1.55 2.376v-2.376h.691v3.474zM17.925 25.219c-.143.262-.361.476-.625.613-.301.153-.635.228-.972.219h-1.231v-3.474h1.231c.336-.009.67.065.972.214.265.134.483.345.625.606.142.283.216.595.216.911s-.074.629-.216.911zm-.791-.083c.197-.231.306-.525.306-.829s-.108-.598-.306-.829c-.238-.209-.549-.315-.865-.295h-.48v2.249h.48c.316.02.627-.086.865-.295zM9.648 3.254s8.923 3.382 8.734 8.277v8.278s-8.916-3.384-8.73-8.278l-.003-8.277zM26.331 17.871c1.685-1.164 3.634-1.886 5.669-2.098v-2.591c-2.344.907-4.333 2.552-5.669 4.689z"/>
      <path d="M25.318 18.652c1.379-2.788 3.77-4.94 6.682-6.013V5.172S19.293 9.99 19.561 16.96v11.786s.566-.216 1.457-.619c0-.377 0-.757.041-1.139.263-3.236 1.795-6.234 4.259-8.336z"/>
      <path d="M24.11 23.03c.067-.817.216-1.626.445-2.413-1.534 1.815-2.464 4.067-2.657 6.44-.019.224-.029.448-.034.679.722-.348 1.562-.782 2.444-1.293-.225-1.123-.292-2.271-.198-3.413zM24.615 23.073c-.085 1.033-.032 2.072.157 3.09 3.472-2.086 7.373-5.308 7.222-9.203v-.339c-2.48.279-4.801 1.367-6.605 3.099-.422 1.073-.683 2.203-.774 3.353z"/>
    </symbol>
    <symbol id="icon-clientfirst" viewBox="0 0 32 32">
      <path d="M5.44 0l4.677 4.428h13.046v12.351l4.677 4.428V.001H5.44z"/>
      <path d="M1.6 4.241v20.6h21.76v-8.188L10.255 4.247 1.6 4.242zm17.615 17.587H5.043V7.974h1.002V20.89h13.17v.938zM7.866 28.662l.523-1.078h.438l-.762 1.438v.837h-.397v-.837l-.764-1.438h.439l.523 1.078zm2.247.667h-.881l-.184.53h-.411l.859-2.275h.355l.861 2.275H10.3l-.186-.53zm-.77-.319h.659l-.33-.944-.33.944zm2.328.234c0-.105.029-.202.086-.289.057-.089.17-.193.339-.314-.088-.111-.151-.206-.186-.284s-.052-.154-.052-.227c0-.178.054-.319.162-.422s.254-.156.438-.156c.166 0 .301.049.406.147.106.097.159.217.159.361 0 .095-.024.182-.072.262-.048.079-.127.158-.236.238l-.155.113.439.519c.064-.125.095-.264.095-.417h.33c0 .28-.066.51-.197.689l.334.395h-.441l-.128-.152c-.162.122-.356.183-.581.183s-.405-.059-.541-.178c-.134-.12-.202-.276-.202-.467zm.753.343c.128 0 .248-.043.359-.128l-.497-.586-.048.034c-.125.095-.188.203-.188.325 0 .105.034.191.102.256s.158.098.272.098zm-.209-1.466c0 .087.054.197.161.33l.173-.119.048-.039c.065-.057.097-.131.097-.22 0-.059-.022-.11-.067-.152-.045-.043-.102-.064-.17-.064-.074 0-.133.025-.177.075s-.066.113-.066.189zm4.133.997c-.023.243-.113.432-.269.569-.156.135-.364.203-.623.203-.181 0-.341-.043-.48-.128-.137-.086-.244-.209-.319-.367s-.114-.342-.117-.552v-.212c0-.215.038-.404.114-.567s.185-.29.327-.378c.143-.088.307-.133.494-.133.251 0 .453.068.606.205s.242.329.267.578h-.394c-.019-.164-.067-.281-.144-.353-.076-.073-.188-.109-.336-.109-.172 0-.304.063-.397.189-.092.125-.139.309-.141.552v.202c0 .246.044.433.131.563s.218.194.387.194c.155 0 .272-.035.35-.105s.128-.186.148-.348h.394zm2.17-.338c0 .223-.039.419-.116.588-.077.168-.188.297-.331.388-.143.09-.307.134-.494.134-.184 0-.349-.045-.494-.134-.144-.091-.255-.219-.334-.386-.078-.167-.118-.359-.119-.576v-.128c0-.222.039-.418.117-.588.079-.17.19-.299.333-.389.144-.091.308-.136.494-.136s.349.045.492.134c.144.088.255.217.333.384s.118.361.119.583v.127zm-.396-.118c0-.252-.048-.445-.144-.58-.095-.134-.23-.202-.405-.202-.171 0-.305.067-.402.202-.096.133-.145.322-.147.567v.131c0 .25.048.443.145.58.098.136.233.205.406.205.175 0 .309-.067.403-.2.095-.133.142-.328.142-.584v-.119z"/>
    </symbol>
    <symbol id="icon-clientfourth" viewBox="0 0 32 32">
      <path  d="M6.248 11.174h-.001c-.862 0-1.561.681-1.561 1.521v.001c0 .84.699 1.521 1.561 1.521h.001c.862 0 1.561-.681 1.561-1.521v-.001c0-.84-.699-1.521-1.561-1.521zM17.766 10.687c-.002-1.167-.479-2.285-1.325-3.11s-1.994-1.29-3.191-1.292c-1.197.002-2.345.467-3.192 1.292s-1.324 1.943-1.326 3.11v6.433s9.033-.98 9.034-6.432v-.001zM1.524 19.231c.002.812.334 1.59.923 2.163s1.387.898 2.22.9c.833-.002 1.631-.326 2.219-.9s.921-1.351.923-2.163v-4.476s-6.285.683-6.285 4.475zm3.142.802c-.163 0-.322-.047-.457-.135s-.241-.213-.303-.36-.079-.308-.047-.463c.032-.156.11-.298.225-.411s.262-.189.421-.219.325-.015.475.046c.15.061.279.163.369.295s.139.287.139.446c0 .106-.021.21-.062.308s-.102.186-.178.261c-.076.075-.167.134-.267.175s-.207.061-.316.061v-.003zM11.082 19.536h-.643v.664h-.335v-1.625h1.058v.271h-.723v.42h.643v.27zm1.609-.112c0 .16-.028.3-.085.421s-.138.214-.243.279c-.105.066-.225.098-.362.098-.135 0-.255-.032-.361-.097s-.188-.157-.246-.277c-.058-.121-.087-.259-.088-.415v-.08c0-.16.029-.301.086-.422s.139-.215.244-.28c.106-.066.226-.098.362-.098s.256.033.36.098c.106.065.187.158.244.28s.087.262.087.421v.073zm-.339-.074c0-.17-.03-.3-.091-.388s-.148-.133-.261-.133c-.112 0-.199.044-.26.132s-.092.215-.093.384v.079c0 .166.03.295.091.386s.149.137.263.137c.112 0 .199-.044.259-.132s.091-.217.091-.386v-.079zm1.425.423c0-.063-.022-.112-.067-.145s-.125-.07-.241-.107c-.116-.038-.208-.075-.276-.112-.185-.1-.277-.234-.277-.403 0-.088.025-.166.074-.234s.121-.123.213-.162c.093-.039.197-.058.313-.058s.22.021.31.064c.091.042.161.101.211.177s.076.164.076.261h-.335c0-.074-.023-.132-.07-.173s-.113-.063-.198-.063c-.082 0-.146.017-.191.052s-.068.08-.068.136c0 .053.026.097.079.133s.132.069.235.1c.19.057.329.128.416.213s.131.19.131.317c0 .141-.053.251-.16.331s-.25.119-.43.119c-.125 0-.239-.023-.342-.068s-.181-.109-.235-.189c-.054-.08-.08-.172-.08-.277h.336c0 .179.107.269.321.269.08 0 .142-.016.186-.048s.067-.078.067-.136zm1.787-.927h-.498V20.2h-.335v-1.354h-.491v-.271h1.324v.271zm1.169.65h-.643v.435h.754v.269h-1.089v-1.625h1.087v.271h-.752v.387h.643v.262zm.91.109h-.267v.595h-.335v-1.625h.604c.192 0 .34.043.444.128s.156.206.156.363c0 .111-.024.203-.073.278s-.12.132-.218.176l.352.664v.016h-.359l-.305-.595zm-.267-.271h.27c.084 0 .149-.021.195-.064s.069-.102.069-.177c0-.077-.022-.137-.066-.181s-.11-.066-.2-.066h-.269v.488zm2.029.293v.573h-.335v-1.625h.634c.122 0 .229.022.321.067s.164.108.214.191c.05.082.075.175.075.28 0 .159-.055.285-.164.377s-.259.137-.452.137h-.294zm0-.271h.299c.089 0 .156-.021.202-.063s.07-.101.07-.179c0-.08-.023-.144-.07-.193s-.112-.074-.194-.076h-.307v.51zm2.119.14h-.643v.435h.754v.269h-1.089v-1.625h1.087v.271h-.752v.387h.643v.262zm1.553-.65h-.498V20.2h-.335v-1.354h-.491v-.271h1.324v.271zm1.17.65h-.643v.435h.754v.269h-1.089v-1.625h1.087v.271h-.752v.387h.643v.262zm.909.109h-.267v.595h-.335v-1.625h.604c.192 0 .34.043.444.128s.156.206.156.363c0 .111-.024.203-.073.278s-.12.132-.218.176l.352.664v.016h-.359l-.305-.595zm-.266-.271h.27c.084 0 .149-.021.195-.064s.069-.102.069-.177c0-.077-.022-.137-.066-.181s-.11-.066-.2-.066h-.269v.488zm1.967.439c0-.063-.022-.112-.067-.145s-.125-.07-.241-.107c-.116-.038-.208-.075-.276-.112-.185-.1-.277-.234-.277-.403 0-.088.025-.166.074-.234s.121-.123.213-.162c.093-.039.197-.058.313-.058s.22.021.31.064c.091.042.161.101.211.177s.076.164.076.261h-.335c0-.074-.023-.132-.07-.173s-.113-.063-.198-.063c-.082 0-.145.017-.191.052s-.068.08-.068.136c0 .053.026.097.079.133s.132.069.235.1c.19.057.329.128.416.213s.131.19.131.317c0 .141-.053.251-.16.331s-.25.119-.43.119c-.125 0-.239-.023-.341-.068s-.181-.109-.235-.189c-.054-.08-.08-.172-.08-.277h.336c0 .179.107.269.321.269.08 0 .142-.016.186-.048s.067-.078.067-.136z"/>
    </symbol>
    <symbol id="icon-clientsecond" viewBox="0 0 32 32">
      <path d="M14.14 1.806h.084c.156 0 .324.016.49.03.734.052 1.463.162 2.179.329V.403c-.738-.185-1.491-.305-2.25-.358-.288-.022-.595-.036-.909-.044h-.263c-1.523.006-3.039.201-4.515.582-1.68.419-3.293 1.075-4.79 1.948v17.475c1.442-.783 2.976-1.381 4.566-1.779 1.256-.32 2.539-.517 3.833-.588h.051c.216-.011.433-.017.655-.019v-1.79c-1.681.022-3.353.244-4.982.662-.602.157-1.185.325-1.731.513l-.623.211V3.591l.266-.128c2.032-.963 4.229-1.524 6.471-1.651.019-.001.037-.001.056 0 .248-.013.497-.019.741-.019h.28c.129.003.258.006.388.014z"/>
      <path d="M18.53 3.651c-.409 0-.814-.014-1.205-.044-.467-.034-.947-.091-1.401-.167-.277-.047-.55-.103-.814-.164v17.275c1.12.277 2.271.413 3.425.404 1.523-.006 3.039-.201 4.515-.581 1.68-.42 3.294-1.075 4.792-1.948V1.263c-1.441.783-2.975 1.381-4.564 1.781-1.551.398-3.145.603-4.747.609zm6.907.299l.623-.21v13.63l-.266.128c-1.021.486-2.087.869-3.184 1.144-1.331.344-2.7.522-4.074.527-.411 0-.819-.017-1.214-.052l-.427-.038V5.062l.497.033c.361.023.735.034 1.141.034 1.745-.006 3.482-.229 5.173-.663.581-.153 1.158-.325 1.731-.518zM5.377 25.977c-.09-.093-.197-.166-.317-.214s-.247-.071-.376-.066c-.137-.002-.273.024-.4.075-.117.046-.222.116-.311.205s-.156.196-.201.313c-.049.123-.073.254-.072.387v2.335c-.006.165.026.328.092.479.055.12.135.226.234.313.093.079.203.135.321.166.114.032.231.048.349.049.13.001.259-.027.377-.081.117-.051.222-.124.311-.216.087-.091.156-.197.204-.313.05-.118.075-.244.075-.372v-.261h-.61v.208c.002.071-.01.142-.036.208-.02.05-.05.095-.089.131-.038.031-.081.053-.128.067-.041.014-.084.021-.128.022-.054.006-.11-.002-.16-.024s-.094-.057-.126-.101a.54824.54824 0 01-.081-.313v-2.177c-.004-.121.022-.241.075-.349.032-.049.077-.089.129-.114s.112-.034.17-.027c.053-.002.105.009.152.032s.089.057.12.099c.068.09.104.2.101.313v.202h.604v-.238c.001-.14-.024-.278-.075-.408-.045-.122-.114-.234-.204-.329zM9.002 25.95c-.195-.164-.44-.255-.694-.257-.124.001-.248.023-.364.066-.119.043-.228.107-.322.191-.101.091-.182.202-.237.327-.061.143-.092.297-.089.452v2.239c-.004.158.026.314.089.459.055.12.136.227.237.313.093.087.203.154.322.197.117.043.24.065.364.066s.248-.022.364-.066c.121-.044.233-.111.33-.197.097-.087.176-.194.23-.313.063-.144.093-.301.089-.459v-2.239c.003-.155-.027-.31-.089-.452-.054-.123-.133-.235-.23-.327zm-.285 3.019c.005.06-.003.12-.024.176s-.054.107-.097.148c-.081.068-.182.105-.287.105s-.207-.037-.287-.105c-.043-.041-.076-.092-.097-.148s-.029-.116-.024-.176V26.73c-.005-.06.003-.12.024-.176s.054-.107.097-.148c.081-.068.182-.105.287-.105s.207.037.287.105c.043.041.076.092.097.148s.029.116.024.176v2.239zM13.765 29.969V25.73h-.587l-.771 2.244h-.011l-.777-2.244h-.581v4.239h.606V27.39h.011l.593 1.823h.302l.598-1.823h.011v2.579h.606zM17.205 26.027c-.093-.105-.211-.184-.343-.232-.142-.046-.29-.068-.439-.066h-.9v4.239h.604v-1.656h.311c.188.009.376-.031.545-.116.137-.076.252-.188.332-.324.07-.113.117-.238.139-.369.024-.16.035-.321.033-.482.006-.204-.014-.407-.059-.606-.04-.147-.117-.281-.223-.39zm-.311 1.292c-.003.077-.022.152-.056.221-.035.065-.089.117-.156.149-.089.04-.187.058-.285.053h-.276v-1.441h.311c.094-.005.187.014.272.053.062.036.112.091.142.157.033.074.051.155.053.236v.282c0 .099.006.2 0 .291h-.006zM20.066 25.73h-.495l-.934 4.239h.604l.177-.911h.823l.177.911h.604l-.957-4.239zm-.557 2.751l.297-1.537h.011l.296 1.537h-.604zM23.969 28.283h-.011l-.912-2.554h-.581v4.239h.604v-2.549h.012l.923 2.549h.568v-4.239h-.604v2.554zM27.66 25.73l-.486 1.685h-.012l-.486-1.685h-.64l.83 2.447v1.792h.604v-1.792l.83-2.447h-.64zM3.692 31.166h.291v.817h.198v-.817h.29v-.167h-.778v.167zM6.14 30.998l-.381.984h.21l.081-.224h.392l.084.224h.215l-.391-.984h-.21zm-.032.595l.134-.365.134.365h-.268zM8.559 31.62h.227v.127c-.066.053-.149.082-.233.083-.04.002-.079-.005-.116-.021s-.068-.041-.093-.072c-.052-.075-.078-.165-.073-.257 0-.219.095-.329.283-.329.05-.005.099.008.14.037s.07.071.082.12l.195-.038c-.042-.192-.181-.289-.417-.289-.127-.003-.25.042-.344.127-.05.049-.088.108-.112.174s-.034.135-.029.205c-.006.135.039.267.126.369.048.05.107.088.171.113s.134.035.203.031c.154.004.304-.052.417-.157v-.388h-.427v.166zM11.029 30.998h-.199v.984h.69v-.167h-.49v-.817zM13.118 30.998h-.199v.984h.199v-.984zM15.161 31.656l-.403-.657h-.193v.984h.185v-.643l.395.643h.198v-.984h-.182v.657zM17.007 31.549h.49v-.167h-.49v-.216h.528v-.167h-.727v.984h.747v-.167h-.548v-.266zM21.484 31.387h-.388v-.388h-.198v.984h.198v-.43h.388v.43h.198v-.984h-.198v.388zM23.342 31.549h.492v-.167h-.492v-.216h.529v-.167h-.727v.984h.746v-.167h-.548v-.266zM25.861 31.549c.171-.027.258-.117.258-.274.005-.042-.001-.084-.018-.123s-.044-.072-.078-.096a.55325.55325 0 00-.288-.058h-.417v.984h.198v-.412h.039c.042-.003.084.005.123.022.029.018.053.043.07.072l.215.313h.237l-.12-.192a.68515.68515 0 00-.218-.236zm-.2-.136h-.146v-.247h.156c.068-.006.136.002.201.023.014.013.026.029.033.046s.011.037.01.056c-.001.019-.006.038-.015.055s-.022.032-.037.043c-.065.02-.133.028-.201.023zM27.76 31.549h.49v-.167h-.49v-.216h.529v-.167h-.729v.984h.747v-.167h-.548v-.266z"/>
    </symbol>
    <symbol id="icon-clientsixth" viewBox="0 0 32 32">
      <path d="M16.086 15.408c-.15-.219-.222-.479-.205-.74v-1.072c0-.329.068-.579.204-.749s.369-.256.701-.255c.311 0 .532.073.663.218.142.186.212.413.196.641v.252h-.557v-.255c.002-.084-.003-.167-.016-.25-.008-.057-.036-.109-.08-.148-.057-.043-.129-.063-.202-.058-.076-.005-.152.016-.212.061-.048.044-.081.101-.092.164-.016.088-.023.176-.022.265v1.301c-.009.126.016.251.071.365.028.039.066.069.111.089s.095.026.144.021c.071.006.142-.016.197-.059.045-.043.075-.098.083-.158.013-.086.019-.174.017-.261v-.264h.557v.241c.016.239-.052.476-.192.674-.128.159-.346.239-.666.239s-.562-.085-.699-.262zM18.404 15.419c-.141-.167-.211-.41-.211-.732v-1.128c0-.319.07-.56.211-.723s.376-.245.705-.244c.327 0 .561.081.702.244s.212.405.212.723v1.128c0 .319-.071.563-.214.731s-.376.252-.699.252-.564-.085-.705-.251zm.964-.271c.05-.105.073-.219.067-.334v-1.381c.006-.113-.016-.225-.066-.327-.028-.039-.068-.071-.114-.09s-.097-.026-.147-.019c-.05-.007-.101 0-.147.019s-.086.05-.114.09c-.051.102-.074.215-.067.327v1.388c-.007.115.016.229.067.334.032.035.073.063.117.083s.094.029.143.029.098-.01.143-.029c.045-.019.085-.048.117-.083v-.007zM20.692 12.624h.599l.451 2.081.461-2.081h.583l.059 3.004h-.431l-.046-2.088-.445 2.088h-.346l-.461-2.095-.043 2.095h-.436l.054-3.004zM23.517 12.624h.933c.538 0 .807.284.807.853 0 .545-.283.817-.849.816h-.318v1.335h-.576l.003-3.004zm.797 1.284c.057.007.115.002.169-.014s.105-.044.147-.08c.066-.101.095-.221.083-.339.003-.092-.006-.183-.028-.273-.008-.03-.023-.058-.042-.082s-.045-.045-.073-.06c-.08-.036-.168-.053-.257-.048h-.224v.898h.224zM26.087 12.624h.619l.635 3.004h-.537l-.126-.693h-.552l-.129.693h-.545l.635-3.004zm.529 1.964l-.215-1.261-.215 1.261h.431zM27.854 12.624h.403l.772 1.714v-1.714h.478v3.004h-.384l-.777-1.789v1.789h-.494l.001-3.004zM30.628 14.483l-.642-1.854h.54l.392 1.191.368-1.191h.529l-.634 1.854v1.145h-.553v-1.145zM16.976 16.942v.157h-.47v1.221h-.197v-1.221h-.472v-.157h1.14zM18.45 18.32h-.152c-.015.001-.031-.004-.043-.013-.012-.008-.02-.019-.025-.032l-.136-.327h-.652l-.136.327c-.004.014-.011.026-.021.037-.012.009-.027.014-.043.013h-.152l.576-1.378h.201l.583 1.372zm-.954-.512h.544l-.23-.561c-.017-.042-.031-.086-.043-.13-.008.026-.015.051-.022.073l-.021.058-.228.56zM19.443 18.184c.036.002.072.002.108 0 .031-.003.062-.009.092-.016.028-.007.056-.015.083-.025.025-.01.051-.022.077-.034v-.31h-.23c-.006 0-.011 0-.017-.002s-.01-.005-.014-.009c-.004-.003-.007-.007-.009-.011s-.003-.009-.003-.014v-.106h.447v.528c-.037.025-.075.047-.115.065s-.084.035-.128.047c-.047.013-.095.023-.144.028-.056.006-.112.009-.168.009-.099.001-.198-.017-.29-.051-.086-.033-.165-.082-.23-.144-.064-.063-.115-.137-.149-.218a.75599.75599 0 01-.053-.286c-.001-.098.016-.196.052-.288.033-.082.084-.156.149-.218s.144-.111.23-.143c.099-.035.203-.053.309-.051.054 0 .107.004.16.012.047.007.093.019.137.035.04.014.079.033.115.055.035.022.069.046.1.072l-.055.085c-.004.008-.011.014-.019.019s-.017.007-.026.007c-.013 0-.025-.004-.036-.011a.73062.73062 0 01-.056-.033.45377.45377 0 00-.077-.037c-.034-.013-.07-.023-.106-.031a.88957.88957 0 00-.146-.012.621.621 0 00-.222.038c-.064.024-.122.062-.169.109-.048.05-.084.108-.107.171-.051.149-.051.31 0 .459.025.065.064.124.115.173.047.047.105.084.168.109.073.024.151.033.228.027zM21.28 18.162h.629v.157h-.822v-1.378h.197l-.005 1.221zM22.564 18.319h-.197v-1.378h.197v1.378zM23.297 16.948c.012.006.022.015.03.025l.842 1.039a.40054.40054 0 010-.049v-1.027h.172v1.383h-.099c-.015.001-.029-.002-.043-.008-.012-.007-.023-.016-.031-.026l-.841-1.037v1.072h-.165v-1.378h.103c.011 0 .022.002.032.007zM25.791 16.942v.152h-.698v.455h.566v.146h-.566v.47h.698v.152h-.901v-1.375h.901zM5.143 8.433l8.75 2.352v8.242l-8.75-2.351V8.433zm-.561-.703v9.346l9.871 2.654v-9.345L4.582 7.73z"/>
      <path d="M9.872 24.068L0 21.412v-9.345l9.872 2.655v9.346z"/>
      <path d="M4.745 8.327l8.636 2.322-3.672 3.478-8.637-2.324 3.674-3.477zm-.163-.597L0 12.067l9.872 2.655 4.581-4.337L4.582 7.73zM10.428 23.543l4.025-3.811-4.025-1.083v4.895z"/>
    </symbol>
    <symbol id="icon-clientthird" viewBox="0 0 32 32">
      <path  d="M5.467 31.103c.011 0 .022.003.032.007s.019.011.027.018l.153.161c-.119.13-.266.234-.431.305-.193.077-.401.115-.611.109-.197.004-.392-.031-.574-.102-.164-.065-.312-.164-.433-.288-.123-.129-.218-.28-.279-.445-.067-.184-.1-.377-.098-.571-.003-.195.033-.39.105-.573.067-.166.168-.317.297-.445.131-.126.287-.224.459-.29.189-.07.389-.104.591-.102.188-.004.375.027.549.093.152.063.291.15.412.257l-.128.171c-.009.012-.02.023-.033.031-.015.01-.033.014-.052.013-.02-.001-.039-.008-.056-.018l-.069-.046-.096-.058a.9778.9778 0 00-.128-.057c-.057-.019-.115-.035-.174-.046a1.238 1.238 0 00-.228-.018c-.146-.002-.29.024-.425.077-.126.048-.239.122-.333.215-.095.099-.169.216-.216.343-.054.145-.08.298-.078.452-.002.156.024.312.078.46.047.126.119.242.212.341.088.093.196.165.318.212.125.049.259.074.394.073.078.001.156-.004.234-.015.126-.015.247-.056.354-.122.054-.034.104-.072.151-.113.02-.018.046-.028.073-.029zM9.888 30.296c.002.194-.033.386-.103.567-.062.165-.161.315-.288.44s-.282.224-.452.289c-.375.136-.789.136-1.164 0-.169-.066-.323-.165-.45-.29-.128-.128-.227-.279-.291-.445-.138-.367-.138-.769 0-1.136.065-.166.164-.317.291-.447.128-.121.281-.216.45-.279.374-.139.79-.139 1.164 0 .17.066.324.165.452.29.126.127.224.276.289.44.071.183.106.376.103.571zm-.402 0c.003-.155-.022-.309-.073-.456-.043-.126-.113-.242-.205-.341-.09-.094-.2-.167-.323-.215-.272-.1-.574-.1-.846 0-.123.048-.234.121-.324.215-.093.098-.164.215-.207.341-.097.297-.097.615 0 .912.043.126.114.242.207.341.09.093.2.166.324.213.273.097.573.097.846 0 .123-.047.234-.12.323-.213.092-.099.162-.215.205-.341.051-.147.076-.301.073-.456zM12.905 30.774l.04.102c.015-.036.029-.069.044-.102.015-.034.031-.068.05-.1l.978-1.694c.019-.029.036-.047.056-.053.026-.008.053-.011.08-.009h.289v2.755h-.343v-2.026-.086a.75283.75283 0 010-.095l-.984 1.718c-.012.026-.033.047-.058.063s-.054.023-.084.023h-.056c-.03 0-.059-.007-.084-.023s-.045-.037-.057-.063l-1.013-1.729V31.668h-.331v-2.75h.289c.027-.002.054.002.08.009.024.011.043.03.054.053l.999 1.696c.02.031.036.064.05.098zM16.586 30.638v1.032h-.383v-2.752h.854c.161-.003.322.017.477.06.124.033.239.092.337.171.085.075.151.167.191.27.045.112.067.232.065.352.002.121-.022.24-.071.352-.046.106-.117.2-.207.275-.098.083-.214.145-.339.182-.149.045-.305.067-.461.064l-.463-.007zm0-.296h.463c.101.001.201-.013.297-.042a.6167.6167 0 00.214-.119c.058-.05.102-.113.13-.182.031-.074.047-.152.046-.232.004-.076-.009-.153-.038-.224s-.075-.135-.134-.188c-.146-.109-.33-.162-.515-.148h-.463v1.134zM21.731 31.673h-.302c-.03.001-.06-.008-.084-.026a.1643.1643 0 01-.05-.064l-.26-.666h-1.307l-.27.666c-.01.024-.026.046-.048.062-.024.019-.055.028-.086.027h-.302l1.148-2.756h.398l1.164 2.756zm-1.895-1.023h1.08l-.456-1.122c-.035-.084-.064-.171-.086-.259l-.044.144c-.013.044-.029.084-.042.117l-.452 1.12zM23.385 28.931c.023.012.043.029.057.049l1.675 2.077v-.097V28.918h.343v2.756h-.191c-.027.001-.054-.005-.078-.016-.024-.013-.044-.03-.061-.051l-1.673-2.075c.002.032.002.063 0 .095v2.048h-.343v-2.756h.203c.024-.001.047.004.069.013zM28.281 30.577v1.094h-.383v-1.094l-1.059-1.66h.343c.03-.002.059.007.082.024.021.018.038.039.052.062l.662 1.071c.027.046.05.088.069.128s.034.078.048.117l.05-.119c.019-.043.04-.085.065-.126l.653-1.078c.014-.021.03-.041.05-.058.023-.019.052-.029.082-.027h.346l-1.06 1.667zM12.715 24.293c.167.02.335.036.505.051 2.583-1.101 4.768-2.902 6.282-5.18s2.29-4.929 2.231-7.624l-2.846-2.712c.579 2.869.308 5.836-.782 8.567s-2.956 5.12-5.389 6.898z"/>
      <path  d="M11.699 24.167l.077.015c2.6-1.772 4.583-4.247 5.691-7.104s1.292-5.965.526-8.922l-4.054-3.862c1.64 3.175 2.3 6.728 1.903 10.246s-1.833 6.857-4.143 9.628zM25.448 14.725c-.689 2.961-2.362 5.632-4.77 7.616-.703.582-1.462 1.101-2.266 1.55 1.961-.549 3.764-1.52 5.269-2.838s2.672-2.947 3.412-4.763l-1.644-1.565z"/>
      <path  d="M24.803 14.289l-2.341-2.23c-.045 2.543-.804 5.028-2.197 7.197s-3.372 3.943-5.729 5.137h.012c.525 0 1.05-.03 1.571-.089 2.203-.857 4.148-2.219 5.664-3.967s2.553-3.825 3.021-6.047zM12.038 2.664L9.245 0C6.748.919 4.601 2.535 3.084 4.636S.752 9.225.744 11.775c.009 2.818 1.005 5.552 2.829 7.77s4.372 3.793 7.242 4.476c2.561-2.973 4.061-6.647 4.281-10.488s-.851-7.648-3.058-10.869zM31.256 13.878c-.01-3.343-1.408-6.546-3.89-8.91s-5.843-3.696-9.352-3.706c-1.621-.002-3.229.283-4.741.841l17.099 16.291c.586-1.44.885-2.971.884-4.515z"/>
    </symbol>
    <symbol id="icon-clock" viewBox="0 0 32 32">
      <path fill="var(--color1, #212121)" d="M31.297 15.301C31.295 6.849 24.442-.002 15.989 0S.686 6.855.688 15.308c.001 6.658 4.307 12.551 10.649 14.576.061.019.124.029.187.029.121 0 .239-.032.342-.094.135-.08.236-.207.283-.356l3.865-12.25c1.057-.005 1.909-.866 1.903-1.923s-.866-1.909-1.923-1.903c-.284.001-.565.067-.82.191l-5.106-5.107c-.253-.245-.657-.238-.902.016-.239.247-.239.639 0 .886l5.103 5.109c-.392.799-.168 1.764.536 2.309l-3.683 11.673C3.844 25.783.118 17.71 2.799 10.432S13.553-.572 20.831 2.109s11.004 10.754 8.323 18.032c-1.31 3.556-4.001 6.431-7.462 7.973l-.398-1.874c-.073-.344-.411-.565-.756-.492-.109.023-.209.074-.292.148l-3.837 3.426c-.263.234-.287.637-.052.9.076.085.174.149.283.184l4.899 1.563c.335.108.694-.077.802-.412.034-.106.04-.219.017-.328l-.391-1.839c5.664-2.388 9.342-7.942 9.329-14.089zm-15.305-.637c.352 0 .638.286.638.638s-.286.638-.638.638c-.352 0-.638-.285-.638-.638s.285-.638.638-.638zm2.101 14.864l2.184-1.948.603 2.84-2.787-.892z"/>
      <path fill="var(--color2, #2196f3)" d="M15.354 3.185V4.46c0 .352.285.638.638.638s.638-.285.638-.638V3.185c0-.352-.286-.638-.638-.638s-.638.286-.638.638zM3.876 14.664c-.352 0-.638.286-.638.638s.285.638.638.638h1.275c.352 0 .638-.285.638-.638s-.285-.638-.638-.638H3.876zM28.108 15.939c.352 0 .638-.285.638-.638s-.285-.638-.638-.638h-1.275c-.352 0-.638.286-.638.638s.286.638.638.638h1.275z"/>
    </symbol>
    <symbol id="icon-diagrama" viewBox="0 0 32 32">
      <path fill="var(--color2, #2196f3)" d="M14.925 14.965h1.066v4.798h-1.066v-4.797zM19.19 17.097h1.066v2.665H19.19v-2.665zM10.661 18.696h1.066v1.066h-1.066v-1.066zM7.463 18.163h1.066v1.599H7.463v-1.599z"/>
      <path fill="var(--color1, #212121)" d="M1.599 28.291h25.587c.883 0 1.599-.716 1.599-1.599V24.56c0-.883-.716-1.599-1.599-1.599h-.533V9.668L29.681 6.8c.703.346 1.553.136 2.013-.499s.396-1.508-.152-2.068-1.42-.644-2.065-.198c-.644.446-.873 1.292-.542 2.002L26.654 8.2V6.97c0-.883-.716-1.599-1.599-1.599H3.733c-.883 0-1.599.716-1.599 1.599v15.992h-.533c-.883 0-1.599.716-1.599 1.599v2.132c0 .883.716 1.599 1.599 1.599zM30.384 4.837c.294 0 .533.239.533.533s-.239.533-.533.533c-.294 0-.533-.239-.533-.533s.239-.533.533-.533zM3.198 6.969c0-.294.239-.533.533-.533h21.322c.294 0 .533.239.533.533v2.239l-1.066 1.013V8.035c0-.294-.239-.533-.533-.533H4.797c-.294 0-.533.239-.533.533v13.326c0 .294.239.533.533.533h19.19c.294 0 .533-.239.533-.533v-9.674l1.066-1.01v12.284H3.198V6.969zm4.798 6.929c-.721-.002-1.354.478-1.546 1.174s.105 1.433.725 1.801c.62.368 1.41.276 1.928-.226l1.853.93c.215.108.476.057.636-.123l3.939-4.431 3.872 2.901c.208.156.498.139.686-.039l3.365-3.188v8.131H5.33V8.568h18.124v2.66L19.683 14.8l-3.904-2.927c-.222-.166-.534-.135-.718.072l-3.993 4.493-1.493-.746c.011-.064.018-.129.02-.193 0-.883-.716-1.599-1.599-1.599zm.533 1.6c0 .294-.239.533-.533.533s-.533-.239-.533-.533c0-.294.239-.533.533-.533s.533.239.533.533zm3.198 8.528h5.331v.533c0 .294-.239.533-.533.533h-4.264c-.294 0-.533-.239-.533-.533v-.533zm-10.661.534c0-.294.239-.533.533-.533h9.062v.533c0 .883.716 1.599 1.599 1.599h4.264c.883 0 1.599-.716 1.599-1.599v-.533h9.062c.294 0 .533.239.533.533v2.132c0 .294-.239.533-.533.533H1.598c-.294 0-.533-.239-.533-.533V24.56z"/>
    </symbol>
    <symbol id="icon-facebook" viewBox="0 0 32 32">
      <path  d="M21.329 5.313h2.921V.225C23.746.156 22.013 0 19.994 0c-4.212 0-7.097 2.649-7.097 7.519V12H8.249v5.688h4.648V32h5.699V17.689h4.46l.708-5.688h-5.169V8.082c.001-1.644.444-2.769 2.735-2.769z"/>
    </symbol>
    <symbol id="icon-icon-send" viewBox="0 0 32 32">
      <path fill="var(--color4, #fff)" d="M32 0L0 18l10.227 3.788L26 7 14.002 23.186l.01.004-.012-.004V32l5.735-6.691L27 28l5-28z"/>
    </symbol>
    <symbol id="icon-instagram" viewBox="0 0 32 32">
      <path  d="M31.969 9.408c-.075-1.7-.35-2.869-.744-3.882-.406-1.075-1.032-2.038-1.851-2.838-.8-.813-1.769-1.444-2.832-1.844C25.523.45 24.36.175 22.66.1 20.947.019 20.403 0 16.059 0s-4.888.019-6.595.094c-1.7.075-2.869.35-3.882.744-1.075.406-2.038 1.031-2.838 1.85C1.931 3.488 1.3 4.457.9 5.52.506 6.539.231 7.702.156 9.402c-.081 1.713-.1 2.257-.1 6.601s.019 4.888.094 6.595c.075 1.7.35 2.869.744 3.882.406 1.075 1.038 2.038 1.85 2.838.8.813 1.769 1.444 2.832 1.844 1.019.394 2.182.669 3.882.744 1.706.075 2.25.094 6.595.094s4.888-.019 6.595-.094c1.7-.075 2.869-.35 3.882-.744 2.151-.832 3.851-2.532 4.682-4.682.394-1.019.669-2.182.744-3.882.075-1.707.094-2.251.094-6.595s-.006-4.888-.081-6.595zm-2.882 13.065c-.069 1.563-.331 2.407-.55 2.969-.538 1.394-1.644 2.5-3.038 3.038-.563.219-1.413.481-2.969.55-1.688.075-2.194.094-6.464.094s-4.782-.019-6.464-.094c-1.563-.069-2.407-.331-2.969-.55-.694-.256-1.325-.663-1.838-1.194-.531-.519-.938-1.144-1.194-1.838-.219-.563-.481-1.413-.55-2.969-.075-1.688-.094-2.194-.094-6.464s.019-4.782.094-6.464c.069-1.563.331-2.407.55-2.969.256-.694.663-1.325 1.2-1.838.519-.531 1.144-.938 1.838-1.194.563-.219 1.413-.481 2.969-.55 1.688-.075 2.194-.094 6.464-.094 4.276 0 4.782.019 6.464.094 1.563.069 2.407.331 2.969.55.694.256 1.325.662 1.838 1.194.531.519.938 1.144 1.194 1.838.219.563.481 1.413.55 2.969.075 1.688.094 2.194.094 6.464s-.019 4.77-.094 6.458z"/>
      <path  d="M16.059 7.783c-4.538 0-8.22 3.682-8.22 8.22s3.682 8.22 8.22 8.22c4.539 0 8.22-3.682 8.22-8.22s-3.682-8.22-8.22-8.22zm0 13.552c-2.944 0-5.332-2.388-5.332-5.332s2.388-5.332 5.332-5.332 5.332 2.388 5.332 5.332-2.388 5.332-5.332 5.332zM26.524 7.458c0 1.06-.859 1.919-1.919 1.919s-1.919-.859-1.919-1.919.859-1.919 1.919-1.919 1.919.859 1.919 1.919z"/>
    </symbol>
    <symbol id="icon-linkedin" viewBox="0 0 32 32">
      <path  d="M31.992 32v-.001H32V20.263c0-5.741-1.236-10.164-7.948-10.164-3.227 0-5.392 1.771-6.276 3.449h-.093v-2.913h-6.364v21.364h6.627V21.42c0-2.785.528-5.479 3.977-5.479 3.399 0 3.449 3.179 3.449 5.657v10.401h6.62zM.528 10.636h6.635V32H.528V10.636zM3.843 0C1.722 0 0 1.721 0 3.843s1.721 3.879 3.843 3.879c2.121 0 3.843-1.757 3.843-3.879C7.685 1.722 5.963 0 3.843 0z"/>
    </symbol>
    <symbol id="icon-mail" viewBox="0 8 32 12">
      <path  d="M29 4H3C1.346 4 0 5.256 0 6.801v16.803c0 1.544 1.346 2.801 3 2.801h26c1.654 0 3-1.256 3-2.801V6.801C32 5.257 30.654 4 29 4zm0 1.867c.136 0 .265.026.383.072L16 16.767 2.617 5.939c.118-.046.247-.072.383-.072h26zm0 18.67H3c-.552 0-1-.418-1-.934V7.911l13.345 10.796c.188.152.422.228.655.228s.467-.076.655-.228L30 7.911v15.692c0 .515-.448.934-1 .934z"/>
    </symbol>
    <symbol id="icon-phone" viewBox="0 0 32 32">
      <path  d="M23.467 0H8.534c-1.765 0-3.2 1.34-3.2 2.987v25.889c0 1.647 1.435 2.987 3.2 2.987h14.933c1.765 0 3.2-1.34 3.2-2.987V2.987c0-1.647-1.435-2.987-3.2-2.987zM8.533 1.991h14.933c.589 0 1.067.446 1.067.996v20.91H7.466V2.987c0-.549.478-.996 1.067-.996zm14.934 27.881H8.534c-.589 0-1.067-.446-1.067-.996v-2.987h17.067v2.987c0 .55-.478.996-1.067.996z"/>
      <path  d="M10.354 27.176c.417.389.417 1.02 0 1.409s-1.092.389-1.508 0c-.417-.389-.417-1.02 0-1.409s1.092-.389 1.508 0z"/>
    </symbol>
    <symbol id="icon-twitter" viewBox="0 0 32 32">
      <path  d="M32 6.078c-1.19.522-2.458.868-3.78 1.036 1.36-.812 2.398-2.088 2.886-3.626-1.268.756-2.668 1.29-4.16 1.588C25.742 3.794 24.026 3 22.154 3c-3.632 0-6.556 2.948-6.556 6.562 0 .52.044 1.02.152 1.496-5.454-.266-10.28-2.88-13.522-6.862-.566.982-.898 2.106-.898 3.316 0 2.272 1.17 4.286 2.914 5.452-1.054-.02-2.088-.326-2.964-.808v.072c0 3.188 2.274 5.836 5.256 6.446-.534.146-1.116.216-1.72.216-.42 0-.844-.024-1.242-.112.85 2.598 3.262 4.508 6.13 4.57-2.232 1.746-5.066 2.798-8.134 2.798-.538 0-1.054-.024-1.57-.09C2.906 27.93 6.35 29 10.064 29c12.072 0 18.672-10 18.672-18.668 0-.29-.01-.57-.024-.848C30.014 8.56 31.108 7.406 32 6.078z"/>
    </symbol>
  </defs>
</svg>
